<?xml version="1.0" encoding="UTF-8" standalone="yes"?>
<!DOCTYPE svg PUBLIC "-//W3C//DTD SVG 1.1//EN" "http://www.w3.org/Graphics/SVG/1.1/DTD/svg11.dtd">

<svg width="564" height="564" viewBox="0 0 564 564" xmlns="http://www.w3.org/2000/svg" xmlns:xlink="http://www.w3.org/1999/xlink" version="1.1" baseProfile="full">
    <g transform="scale(1.000000,-1.000000) translate(0,-564)">
        <path d="M 1.000000 1.000000 L 565.000000 1.000000 L 565.000000 565.000000 L 1.000000 565.000000 Z" transform="scale(1.000000,1.000000) translate(-1.000000,-1.000000)" fill="#000000" opacity="1.000000"></path>
        <path d="M 223.436701 1.070801 L 228.998501 1.282101 L 234.523701 1.632201 L 240.010601 2.119501 L 245.457401 2.742101 L 250.862501 3.498401 L 256.224201 4.386801 L 261.540801 5.405401 L 266.810501 6.552601 L 272.031601 7.826601 L 277.202601 9.225901 L 282.321501 10.748601 L 287.386801 12.393201 L 292.396801 14.157701 L 297.349701 16.040701 L 302.243901 18.040301 L 307.077501 20.154901 L 311.849101 22.382701 L 316.556701 24.722101 L 321.198801 27.171401 L 325.773601 29.728801 L 330.279401 32.392601 L 334.714501 35.161201 L 339.077201 38.032801 L 343.365901 41.005801 L 347.578801 44.078401 L 351.714101 47.248901 L 355.770301 50.515701 L 359.745601 53.876901 L 363.638301 57.331101 L 367.446601 60.876301 L 371.169001 64.510901 L 374.803601 68.233301 L 378.348801 72.041601 L 381.802901 75.934301 L 385.164201 79.909601 L 388.431001 83.965701 L 391.601501 88.101101 L 394.674101 92.314001 L 397.647101 96.602601 L 400.518701 100.965401 L 403.287301 105.400501 L 405.951101 109.906301 L 408.508501 114.481101 L 410.957801 119.123201 L 413.297201 123.830801 L 415.525001 128.602401 L 417.639601 133.436001 L 419.639201 138.330201 L 421.522101 143.283101 L 423.286701 148.293001 L 424.931201 153.358401 L 426.454001 158.477301 L 427.853201 163.648301 L 429.127301 168.869401 L 430.274501 174.139101 L 431.293101 179.455701 L 432.181501 184.817401 L 432.937801 190.222501 L 433.560401 195.669301 L 434.047701 201.156201 L 434.397801 206.681401 L 434.609101 212.243201 L 434.679901 217.839901 L 434.609101 223.436701 L 434.397801 228.998501 L 434.047701 234.523701 L 433.560401 240.010601 L 432.937801 245.457401 L 432.181501 250.862501 L 431.293101 256.224201 L 430.274501 261.540801 L 429.127301 266.810501 L 427.853201 272.031601 L 426.454001 277.202601 L 424.931201 282.321501 L 423.286701 287.386801 L 421.522101 292.396801 L 419.639201 297.349701 L 417.639601 302.243901 L 415.525001 307.077501 L 413.297201 311.849101 L 410.957801 316.556701 L 408.508501 321.198801 L 405.951101 325.773601 L 403.287301 330.279401 L 400.518701 334.714501 L 397.647101 339.077201 L 394.674101 343.365901 L 391.601501 347.578801 L 388.431001 351.714101 L 385.164201 355.770301 L 381.802901 359.745601 L 378.348801 363.638301 L 374.803601 367.446601 L 371.169001 371.169001 L 367.446601 374.803601 L 363.638301 378.348801 L 359.745601 381.802901 L 355.770301 385.164201 L 351.714101 388.431001 L 347.578801 391.601501 L 343.365901 394.674101 L 339.077201 397.647101 L 334.714501 400.518701 L 330.279401 403.287301 L 325.773601 405.951101 L 321.198801 408.508501 L 316.556701 410.957801 L 311.849101 413.297201 L 307.077501 415.525001 L 302.243901 417.639601 L 297.349701 419.639201 L 292.396801 421.522101 L 287.386801 423.286701 L 282.321501 424.931201 L 277.202601 426.454001 L 272.031601 427.853201 L 266.810501 429.127301 L 261.540801 430.274501 L 256.224201 431.293101 L 250.862501 432.181501 L 245.457401 432.937801 L 240.010601 433.560401 L 234.523701 434.047701 L 228.998501 434.397801 L 223.436701 434.609101 L 217.839901 434.679901 L 212.243201 434.609101 L 206.681401 434.397801 L 201.156201 434.047701 L 195.669301 433.560401 L 190.222501 432.937801 L 184.817401 432.181501 L 179.455701 431.293101 L 174.139101 430.274501 L 168.869401 429.127301 L 163.648301 427.853201 L 158.477301 426.454001 L 153.358401 424.931201 L 148.293001 423.286701 L 143.283101 421.522101 L 138.330201 419.639201 L 133.436001 417.639601 L 128.602401 415.525001 L 123.830801 413.297201 L 119.123201 410.957801 L 114.481101 408.508501 L 109.906301 405.951101 L 105.400501 403.287301 L 100.965401 400.518701 L 96.602601 397.647101 L 92.314001 394.674101 L 88.101101 391.601501 L 83.965701 388.431001 L 79.909601 385.164201 L 75.934301 381.802901 L 72.041601 378.348801 L 68.233301 374.803601 L 64.510901 371.169001 L 60.876301 367.446601 L 57.331101 363.638301 L 53.876901 359.745601 L 50.515701 355.770301 L 47.248901 351.714101 L 44.078401 347.578801 L 41.005801 343.365901 L 38.032801 339.077201 L 35.161201 334.714501 L 32.392601 330.279401 L 29.728801 325.773601 L 27.171401 321.198801 L 24.722101 316.556701 L 22.382701 311.849101 L 20.154901 307.077501 L 18.040301 302.243901 L 16.040701 297.349701 L 14.157701 292.396801 L 12.393201 287.386801 L 10.748601 282.321501 L 9.225901 277.202601 L 7.826601 272.031601 L 6.552601 266.810501 L 5.405401 261.540801 L 4.386801 256.224201 L 3.498401 250.862501 L 2.742101 245.457401 L 2.119501 240.010601 L 1.632201 234.523701 L 1.282101 228.998501 L 1.070801 223.436701 L 0.999901 217.839901 L 1.070801 212.243201 L 1.282101 206.681401 L 1.632201 201.156201 L 2.119501 195.669301 L 2.742101 190.222501 L 3.498401 184.817401 L 4.386801 179.455701 L 5.405401 174.139101 L 6.552601 168.869401 L 7.826601 163.648301 L 9.225901 158.477301 L 10.748601 153.358401 L 12.393201 148.293001 L 14.157701 143.283101 L 16.040701 138.330201 L 18.040301 133.436001 L 20.154901 128.602401 L 22.382701 123.830801 L 24.722101 119.123201 L 27.171401 114.481101 L 29.728801 109.906301 L 32.392601 105.400501 L 35.161201 100.965401 L 38.032801 96.602601 L 41.005801 92.314001 L 44.078401 88.101101 L 47.248901 83.965701 L 50.515701 79.909601 L 53.876901 75.934301 L 57.331101 72.041601 L 60.876301 68.233301 L 64.510901 64.510901 L 68.233301 60.876301 L 72.041601 57.331101 L 75.934301 53.876901 L 79.909601 50.515701 L 83.965701 47.248901 L 88.101101 44.078401 L 92.314001 41.005801 L 96.602601 38.032801 L 100.965401 35.161201 L 105.400501 32.392601 L 109.906301 29.728801 L 114.481101 27.171401 L 119.123201 24.722101 L 123.830801 22.382701 L 128.602401 20.154901 L 133.436001 18.040301 L 138.330201 16.040701 L 143.283101 14.157701 L 148.293001 12.393201 L 153.358401 10.748601 L 158.477301 9.225901 L 163.648301 7.826601 L 168.869401 6.552601 L 174.139101 5.405401 L 179.455701 4.386801 L 184.817401 3.498401 L 190.222501 2.742101 L 195.669301 2.119501 L 201.156201 1.632201 L 206.681401 1.282101 L 212.243201 1.070801 L 217.839901 0.999901 Z M 51.039901 164.289901 L 51.039901 271.389901 L 84.189901 271.389901 L 109.239901 197.739901 L 109.539901 197.739901 L 133.239901 271.389901 L 166.389901 271.389901 L 166.389901 164.289901 L 144.339901 164.289901 L 144.339901 240.189901 L 144.039901 240.189901 L 117.789901 164.289901 L 99.639901 164.289901 L 73.389901 239.439901 L 73.089901 239.439901 L 73.089901 164.289901 Z M 175.839901 164.289901 L 216.339901 271.389901 L 240.489901 271.389901 L 280.539901 164.289901 L 256.089901 164.289901 L 247.989901 188.139901 L 207.939901 188.139901 L 199.539901 164.289901 Z M 289.839901 164.289901 L 289.839901 271.389901 L 336.039901 271.389901 L 336.685401 271.386701 L 337.968001 271.360901 L 339.239501 271.309401 L 340.499901 271.232001 L 341.749101 271.128901 L 342.987201 271.000001 L 344.214101 270.845301 L 345.430001 270.664801 L 346.634601 270.458601 L 347.828201 270.226601 L 349.010601 269.968701 L 350.181901 269.685201 L 351.342101 269.375801 L 352.491101 269.040601 L 353.629001 268.679701 L 354.755701 268.293001 L 355.314901 268.089901 L 355.870401 267.880501 L 356.967301 267.442201 L 358.045401 266.978101 L 359.104801 266.488301 L 360.145401 265.972701 L 361.167301 265.431201 L 362.170401 264.864101 L 363.154801 264.271101 L 364.120401 263.652301 L 365.067301 263.007801 L 365.995401 262.337501 L 366.904801 261.641401 L 367.795401 260.919501 L 368.667301 260.171901 L 369.520401 259.398401 L 370.354801 258.599201 L 370.764901 258.189901 L 371.170001 257.774201 L 371.963301 256.923401 L 372.734401 256.046901 L 373.483201 255.144501 L 374.209801 254.216401 L 374.914101 253.262501 L 375.596101 252.282801 L 376.255901 251.277301 L 376.893401 250.246101 L 377.508601 249.189101 L 378.101601 248.106201 L 378.672301 246.997701 L 379.220701 245.863301 L 379.746901 244.703101 L 380.250801 243.517201 L 380.732501 242.305501 L 380.964901 241.689901 L 381.191001 241.067801 L 381.621701 239.803401 L 382.023701 238.512001 L 382.396901 237.193601 L 382.741401 235.848301 L 383.057201 234.476001 L 383.344401 233.076801 L 383.602801 231.650601 L 383.832401 230.197501 L 384.033401 228.717401 L 384.205701 227.210401 L 384.349201 225.676401 L 384.464101 224.115501 L 384.550201 222.527601 L 384.607601 220.912701 L 384.636301 219.270901 L 384.639901 218.439901 L 384.637001 217.710401 L 384.613601 216.262001 L 384.566701 214.827601 L 384.496401 213.407301 L 384.402601 212.001101 L 384.285401 210.608901 L 384.144801 209.230801 L 383.980801 207.866701 L 383.793301 206.516701 L 383.582301 205.180801 L 383.347901 203.858901 L 383.090101 202.551101 L 382.808901 201.257301 L 382.504201 199.977601 L 382.176101 198.712001 L 381.824501 197.460401 L 381.639901 196.839901 L 381.449401 196.223801 L 381.050401 195.007401 L 380.627401 193.812101 L 380.180301 192.637901 L 379.709201 191.484801 L 379.214101 190.352701 L 378.694901 189.241801 L 378.151801 188.151901 L 377.584601 187.083201 L 376.993401 186.035501 L 376.378101 185.009001 L 375.738901 184.003501 L 375.075601 183.019101 L 374.388301 182.055901 L 373.677001 181.113701 L 372.941601 180.192601 L 372.564901 179.739901 L 372.182301 179.292901 L 371.399501 178.417001 L 370.593301 177.565001 L 369.763601 176.737101 L 368.910401 175.933201 L 368.033901 175.153301 L 367.133901 174.397401 L 366.210401 173.665601 L 365.263601 172.957801 L 364.293301 172.274001 L 363.299501 171.614201 L 362.282301 170.978501 L 361.241701 170.366801 L 360.177601 169.779101 L 359.090101 169.215401 L 357.979201 168.675801 L 357.414901 168.414901 L 356.844601 168.161201 L 355.685001 167.677801 L 354.500301 167.226601 L 353.290301 166.807601 L 352.055101 166.420901 L 350.794801 166.066401 L 349.509201 165.744201 L 348.198501 165.454101 L 346.862601 165.196301 L 345.501401 164.970701 L 344.115101 164.777401 L 342.703601 164.616201 L 341.266901 164.487301 L 339.805001 164.390601 L 338.317801 164.326201 L 336.805501 164.294001 L 336.039901 164.289901 Z M 335.026301 184.096401 L 336.291901 184.147901 L 337.548101 184.251101 L 338.795001 184.405801 L 340.032501 184.612001 L 341.260601 184.869801 L 342.479401 185.179201 L 343.688801 185.540101 L 344.289901 185.739901 L 344.885801 185.954701 L 346.053001 186.435201 L 347.187401 186.983601 L 348.289001 187.600001 L 349.357701 188.284401 L 350.393601 189.036701 L 351.396801 189.857001 L 352.367101 190.745301 L 352.839901 191.214901 L 353.072801 191.456301 L 353.529901 191.952601 L 353.975201 192.467001 L 354.408801 192.999601 L 354.830701 193.550401 L 355.240801 194.119401 L 355.639301 194.706501 L 356.026001 195.311701 L 356.401001 195.935201 L 356.764301 196.576801 L 357.115801 197.236501 L 357.455701 197.914501 L 357.783801 198.610601 L 358.100201 199.324801 L 358.404901 200.057201 L 358.697801 200.807801 L 358.839901 201.189901 L 358.978401 201.576901 L 359.242001 202.366801 L 359.488101 203.177701 L 359.716601 204.009801 L 359.927601 204.862901 L 360.120901 205.737101 L 360.296701 206.632401 L 360.454901 207.548801 L 360.595601 208.486301 L 360.718601 209.444901 L 360.824101 210.424601 L 360.912001 211.425401 L 360.982301 212.447301 L 361.035001 213.490201 L 361.070201 214.554301 L 361.087701 215.639401 L 361.089901 216.189901 L 361.083801 217.196301 L 361.034601 219.172101 L 360.936101 221.098601 L 360.788501 222.976001 L 360.591601 224.804101 L 360.345501 226.583001 L 360.050201 228.312701 L 359.705701 229.993201 L 359.514901 230.814901 L 359.414501 231.220901 L 359.201801 232.021901 L 358.973301 232.808201 L 358.729001 233.579901 L 358.468801 234.336901 L 358.192801 235.079301 L 357.901001 235.807101 L 357.593401 236.520101 L 357.270001 237.218601 L 356.930701 237.902401 L 356.575701 238.571501 L 356.204801 239.226001 L 355.818001 239.865801 L 355.415501 240.491001 L 354.997101 241.101601 L 354.563001 241.697501 L 354.339901 241.989901 L 354.112701 242.278401 L 353.644501 242.842701 L 353.158201 243.390001 L 352.653701 243.920201 L 352.131001 244.433501 L 351.590201 244.929801 L 351.031201 245.409101 L 350.454101 245.871401 L 349.858801 246.316701 L 349.245301 246.745001 L 348.613601 247.156401 L 347.963801 247.550701 L 347.295901 247.928001 L 346.609701 248.288401 L 345.905401 248.631801 L 345.183001 248.958101 L 344.814901 249.114901 L 344.441901 249.267201 L 343.679601 249.557201 L 342.895601 249.828001 L 342.090001 250.079301 L 341.262601 250.311301 L 340.413601 250.524001 L 339.542901 250.717401 L 338.650501 250.891401 L 337.736401 251.046101 L 336.800701 251.181501 L 335.843301 251.297501 L 334.864201 251.394201 L 333.863401 251.471501 L 332.840901 251.529501 L 331.796801 251.568201 L 330.731001 251.587501 L 330.189901 251.589901 L 313.389901 251.589901 L 313.389901 184.089901 L 334.389901 184.089901 Z M 228.339901 244.989901 L 228.039901 244.989901 L 214.089901 205.689901 L 241.839901 205.689901 Z" transform="scale(1.000000,1.000000) translate(63.959999,63.709999)" fill="#ffffff" opacity="1.000000"></path>
    </g>
</svg>