<?xml version="1.0" standalone="no"?>
<!DOCTYPE svg PUBLIC "-//W3C//DTD SVG 20010904//EN"
 "http://www.w3.org/TR/2001/REC-SVG-20010904/DTD/svg10.dtd">
<svg version="1.0" xmlns="http://www.w3.org/2000/svg"
 width="700.000000pt" height="700.000000pt" viewBox="0 0 700.000000 700.000000"
 preserveAspectRatio="xMidYMid meet">
<metadata>
Created by potrace 1.14, written by Peter Selinger 2001-2017
</metadata>
<g transform="translate(0.000000,700.000000) scale(0.100000,-0.100000)"
fill="#000000" stroke="none">
<path d="M896 6989 c-414 -61 -750 -363 -864 -778 l-27 -96 0 -2615 0 -2615
27 -96 c103 -375 381 -654 754 -757 l99 -27 2615 0 2615 0 99 27 c373 103 651
382 754 757 l27 96 0 2615 0 2615 -27 99 c-103 373 -382 651 -757 754 l-96 27
-2580 1 c-1420 1 -2607 -2 -2639 -7z m3004 -364 c501 -69 925 -227 1340 -499
486 -320 889 -792 1132 -1328 72 -160 167 -440 202 -598 58 -267 70 -382 70
-700 0 -257 -3 -314 -23 -440 -62 -400 -186 -770 -366 -1090 -451 -804 -1215
-1366 -2111 -1553 -232 -49 -359 -61 -644 -61 -284 0 -398 11 -638 60 -1170
240 -2118 1145 -2412 2304 -68 270 -94 481 -94 780 0 238 9 342 45 550 169
970 795 1812 1679 2259 359 182 741 292 1150 331 135 12 533 4 670 -15z"/>
<path d="M1080 3500 l0 -780 160 0 160 0 2 545 3 544 190 -544 190 -545 131 0
132 0 71 208 c40 114 125 359 189 545 l117 338 5 -543 5 -543 158 -3 157 -3 0
781 0 780 -238 0 -239 0 -167 -522 c-93 -288 -172 -529 -176 -536 -4 -8 -71
176 -160 440 -84 249 -166 490 -182 536 l-30 82 -239 0 -239 0 0 -780z"/>
<path d="M3452 4203 c-17 -43 -145 -382 -285 -753 -141 -371 -260 -687 -266
-702 l-11 -28 173 0 172 0 61 173 60 172 291 3 291 2 46 -132 c25 -73 52 -151
60 -173 l13 -40 177 -3 c167 -2 177 -1 172 15 -3 10 -134 360 -290 778 l-284
760 -175 3 -175 2 -30 -77z m298 -588 c51 -148 95 -276 98 -282 3 -10 -40 -13
-197 -13 -111 0 -201 3 -201 6 0 5 167 477 191 542 5 14 11 23 13 21 2 -2 45
-125 96 -274z"/>
<path d="M4550 3500 l0 -780 364 0 c280 0 383 3 450 15 265 46 438 205 522
480 27 85 28 101 29 290 0 164 -3 212 -18 265 -64 229 -216 398 -415 464 -120
40 -192 46 -574 46 l-358 0 0 -780z m704 479 c79 -14 137 -41 187 -86 94 -85
129 -181 136 -373 8 -212 -27 -323 -134 -420 -81 -75 -114 -83 -350 -88 l-203
-4 0 491 0 491 153 0 c84 0 179 -5 211 -11z"/>
</g>
</svg>
