<?xml version="1.0" encoding="UTF-8" standalone="yes"?>
<!DOCTYPE svg PUBLIC "-//W3C//DTD SVG 1.1//EN" "http://www.w3.org/Graphics/SVG/1.1/DTD/svg11.dtd">

<svg width="564" height="564" viewBox="0 0 564 564" xmlns="http://www.w3.org/2000/svg" xmlns:xlink="http://www.w3.org/1999/xlink" version="1.1" baseProfile="full">
    <g transform="scale(1.000000,-1.000000) translate(0,-564)">
        <path d="M 286.644800 1.023000 L 290.278500 1.092100 L 293.900900 1.206800 L 297.511600 1.366900 L 301.110500 1.572100 L 304.697100 1.822200 L 308.271300 2.116900 L 311.832800 2.455900 L 315.381300 2.838900 L 318.916400 3.265600 L 322.438000 3.735800 L 325.945800 4.249200 L 329.439400 4.805500 L 332.918600 5.404500 L 336.383200 6.045800 L 339.832800 6.729200 L 343.267200 7.454400 L 346.686000 8.221100 L 350.089100 9.029100 L 353.476100 9.878100 L 356.846800 10.767700 L 360.200900 11.697800 L 363.538100 12.668000 L 366.858100 13.678100 L 370.160700 14.727800 L 373.445600 15.816800 L 376.712400 16.944800 L 379.961000 18.111600 L 383.191000 19.316900 L 386.402300 20.560400 L 389.594400 21.841800 L 392.767100 23.160900 L 395.920100 24.517400 L 399.053300 25.910900 L 402.166200 27.341300 L 405.258600 28.808200 L 408.330300 30.311400 L 411.380900 31.850600 L 414.410200 33.425500 L 417.417900 35.035800 L 420.403700 36.681300 L 423.367400 38.361700 L 426.308700 40.076700 L 429.227200 41.826000 L 432.122800 43.609400 L 434.995100 45.426600 L 437.843900 47.277200 L 440.668800 49.161100 L 443.469700 51.078000 L 446.246200 53.027500 L 448.998100 55.009300 L 451.725000 57.023400 L 454.426800 59.069200 L 457.103100 61.146600 L 459.753600 63.255300 L 462.378100 65.395000 L 464.976300 67.565500 L 467.548000 69.766400 L 470.092700 71.997500 L 472.610400 74.258400 L 475.100600 76.549000 L 477.563100 78.869000 L 479.997700 81.218000 L 482.404100 83.595800 L 484.781900 86.002200 L 487.130900 88.436800 L 489.450900 90.899300 L 491.741500 93.389500 L 494.002400 95.907200 L 496.233500 98.451900 L 498.434400 101.023600 L 500.604900 103.621800 L 502.744600 106.246300 L 504.853300 108.896800 L 506.930700 111.573100 L 508.976500 114.274900 L 510.990600 117.001800 L 512.972400 119.753700 L 514.921900 122.530200 L 516.838800 125.331100 L 518.722700 128.156000 L 520.573300 131.004800 L 522.390500 133.877100 L 524.173900 136.772700 L 525.923200 139.691200 L 527.638200 142.632500 L 529.318600 145.596200 L 530.964100 148.582000 L 532.574400 151.589700 L 534.149300 154.619000 L 535.688500 157.669600 L 537.191700 160.741300 L 538.658600 163.833700 L 540.089000 166.946600 L 541.482500 170.079800 L 542.839000 173.232800 L 544.158100 176.405500 L 545.439500 179.597600 L 546.683000 182.808900 L 547.888300 186.038900 L 549.055100 189.287500 L 550.183100 192.554300 L 551.272100 195.839200 L 552.321800 199.141800 L 553.331900 202.461800 L 554.302100 205.799000 L 555.232200 209.153100 L 556.121800 212.523800 L 556.970800 215.910800 L 557.778800 219.313900 L 558.545500 222.732700 L 559.270700 226.167100 L 559.954100 229.616700 L 560.595400 233.081300 L 561.194400 236.560500 L 561.750700 240.054100 L 562.264100 243.561900 L 562.734300 247.083500 L 563.161000 250.618600 L 563.544000 254.167100 L 563.883000 257.728600 L 564.177700 261.302800 L 564.427800 264.889400 L 564.633000 268.488300 L 564.793100 272.099000 L 564.907800 275.721400 L 564.976900 279.355100 L 565.000000 283.000000 L 564.976900 286.644800 L 564.907800 290.278500 L 564.793100 293.900900 L 564.633000 297.511600 L 564.427800 301.110500 L 564.177700 304.697100 L 563.883000 308.271300 L 563.544000 311.832800 L 563.161000 315.381300 L 562.734300 318.916400 L 562.264100 322.438000 L 561.750700 325.945800 L 561.194400 329.439400 L 560.595400 332.918600 L 559.954100 336.383200 L 559.270700 339.832800 L 558.545500 343.267200 L 557.778800 346.686000 L 556.970800 350.089100 L 556.121800 353.476100 L 555.232200 356.846800 L 554.302100 360.200900 L 553.331900 363.538100 L 552.321800 366.858100 L 551.272100 370.160700 L 550.183100 373.445600 L 549.055100 376.712400 L 547.888300 379.961000 L 546.683000 383.191000 L 545.439500 386.402300 L 544.158100 389.594400 L 542.839000 392.767100 L 541.482500 395.920100 L 540.089000 399.053300 L 538.658600 402.166200 L 537.191700 405.258600 L 535.688500 408.330300 L 534.149300 411.380900 L 532.574400 414.410200 L 530.964100 417.417900 L 529.318600 420.403700 L 527.638200 423.367400 L 525.923200 426.308700 L 524.173900 429.227200 L 522.390500 432.122800 L 520.573300 434.995100 L 518.722700 437.843900 L 516.838800 440.668800 L 514.921900 443.469700 L 512.972400 446.246200 L 510.990600 448.998100 L 508.976500 451.725000 L 506.930700 454.426800 L 504.853300 457.103100 L 502.744600 459.753600 L 500.604900 462.378100 L 498.434400 464.976300 L 496.233500 467.548000 L 494.002400 470.092700 L 491.741500 472.610400 L 489.450900 475.100600 L 487.130900 477.563100 L 484.781900 479.997700 L 482.404100 482.404100 L 479.997700 484.781900 L 477.563100 487.130900 L 475.100600 489.450900 L 472.610400 491.741500 L 470.092700 494.002400 L 467.548000 496.233500 L 464.976300 498.434400 L 462.378100 500.604900 L 459.753600 502.744600 L 457.103100 504.853300 L 454.426800 506.930700 L 451.725000 508.976500 L 448.998100 510.990600 L 446.246200 512.972400 L 443.469700 514.921900 L 440.668800 516.838800 L 437.843900 518.722700 L 434.995100 520.573300 L 432.122800 522.390500 L 429.227200 524.173900 L 426.308700 525.923200 L 423.367400 527.638200 L 420.403700 529.318600 L 417.417900 530.964100 L 414.410200 532.574400 L 411.380900 534.149300 L 408.330300 535.688500 L 405.258600 537.191700 L 402.166200 538.658600 L 399.053300 540.089000 L 395.920100 541.482500 L 392.767100 542.839000 L 389.594400 544.158100 L 386.402300 545.439500 L 383.191000 546.683000 L 379.961000 547.888300 L 376.712400 549.055100 L 373.445600 550.183100 L 370.160700 551.272100 L 366.858100 552.321800 L 363.538100 553.331900 L 360.200900 554.302100 L 356.846800 555.232200 L 353.476100 556.121800 L 350.089100 556.970800 L 346.686000 557.778800 L 343.267200 558.545500 L 339.832800 559.270700 L 336.383200 559.954100 L 332.918600 560.595400 L 329.439400 561.194400 L 325.945800 561.750700 L 322.438000 562.264100 L 318.916400 562.734300 L 315.381300 563.161000 L 311.832800 563.544000 L 308.271300 563.883000 L 304.697100 564.177700 L 301.110500 564.427800 L 297.511600 564.633000 L 293.900900 564.793100 L 290.278500 564.907800 L 286.644800 564.976900 L 283.000000 565.000000 L 279.355100 564.976900 L 275.721400 564.907800 L 272.099000 564.793100 L 268.488300 564.633000 L 264.889400 564.427800 L 261.302800 564.177700 L 257.728600 563.883000 L 254.167100 563.544000 L 250.618600 563.161000 L 247.083500 562.734300 L 243.561900 562.264100 L 240.054100 561.750700 L 236.560500 561.194400 L 233.081300 560.595400 L 229.616700 559.954100 L 226.167100 559.270700 L 222.732700 558.545500 L 219.313900 557.778800 L 215.910800 556.970800 L 212.523800 556.121800 L 209.153100 555.232200 L 205.799000 554.302100 L 202.461800 553.331900 L 199.141800 552.321800 L 195.839200 551.272100 L 192.554300 550.183100 L 189.287500 549.055100 L 186.038900 547.888300 L 182.808900 546.683000 L 179.597600 545.439500 L 176.405500 544.158100 L 173.232800 542.839000 L 170.079800 541.482500 L 166.946600 540.089000 L 163.833700 538.658600 L 160.741300 537.191700 L 157.669600 535.688500 L 154.619000 534.149300 L 151.589700 532.574400 L 148.582000 530.964100 L 145.596200 529.318600 L 142.632500 527.638200 L 139.691200 525.923200 L 136.772700 524.173900 L 133.877100 522.390500 L 131.004800 520.573300 L 128.156000 518.722700 L 125.331100 516.838800 L 122.530200 514.921900 L 119.753700 512.972400 L 117.001800 510.990600 L 114.274900 508.976500 L 111.573100 506.930700 L 108.896800 504.853300 L 106.246300 502.744600 L 103.621800 500.604900 L 101.023600 498.434400 L 98.451900 496.233500 L 95.907200 494.002400 L 93.389500 491.741500 L 90.899300 489.450900 L 88.436800 487.130900 L 86.002200 484.781900 L 83.595800 482.404100 L 81.218000 479.997700 L 78.869000 477.563100 L 76.549000 475.100600 L 74.258400 472.610400 L 71.997500 470.092700 L 69.766400 467.548000 L 67.565500 464.976300 L 65.395000 462.378100 L 63.255300 459.753600 L 61.146600 457.103100 L 59.069200 454.426800 L 57.023400 451.725000 L 55.009300 448.998100 L 53.027500 446.246200 L 51.078000 443.469700 L 49.161100 440.668800 L 47.277200 437.843900 L 45.426600 434.995100 L 43.609400 432.122800 L 41.826000 429.227200 L 40.076700 426.308700 L 38.361700 423.367400 L 36.681300 420.403700 L 35.035800 417.417900 L 33.425500 414.410200 L 31.850600 411.380900 L 30.311400 408.330300 L 28.808200 405.258600 L 27.341300 402.166200 L 25.910900 399.053300 L 24.517400 395.920100 L 23.160900 392.767100 L 21.841800 389.594400 L 20.560400 386.402300 L 19.316900 383.191000 L 18.111600 379.961000 L 16.944800 376.712400 L 15.816800 373.445600 L 14.727800 370.160700 L 13.678100 366.858100 L 12.668000 363.538100 L 11.697800 360.200900 L 10.767700 356.846800 L 9.878100 353.476100 L 9.029100 350.089100 L 8.221100 346.686000 L 7.454400 343.267200 L 6.729200 339.832800 L 6.045800 336.383200 L 5.404500 332.918600 L 4.805500 329.439400 L 4.249200 325.945800 L 3.735800 322.438000 L 3.265600 318.916400 L 2.838900 315.381300 L 2.455900 311.832800 L 2.116900 308.271300 L 1.822200 304.697100 L 1.572100 301.110500 L 1.366900 297.511600 L 1.206800 293.900900 L 1.092100 290.278500 L 1.023000 286.644800 L 1.000000 283.000000 L 1.023000 279.355100 L 1.092100 275.721400 L 1.206800 272.099000 L 1.366900 268.488300 L 1.572100 264.889400 L 1.822200 261.302800 L 2.116900 257.728600 L 2.455900 254.167100 L 2.838900 250.618600 L 3.265600 247.083500 L 3.735800 243.561900 L 4.249200 240.054100 L 4.805500 236.560500 L 5.404500 233.081300 L 6.045800 229.616700 L 6.729200 226.167100 L 7.454400 222.732700 L 8.221100 219.313900 L 9.029100 215.910800 L 9.878100 212.523800 L 10.767700 209.153100 L 11.697800 205.799000 L 12.668000 202.461800 L 13.678100 199.141800 L 14.727800 195.839200 L 15.816800 192.554300 L 16.944800 189.287500 L 18.111600 186.038900 L 19.316900 182.808900 L 20.560400 179.597600 L 21.841800 176.405500 L 23.160900 173.232800 L 24.517400 170.079800 L 25.910900 166.946600 L 27.341300 163.833700 L 28.808200 160.741300 L 30.311400 157.669600 L 31.850600 154.619000 L 33.425500 151.589700 L 35.035800 148.582000 L 36.681300 145.596200 L 38.361700 142.632500 L 40.076700 139.691200 L 41.826000 136.772700 L 43.609400 133.877100 L 45.426600 131.004800 L 47.277200 128.156000 L 49.161100 125.331100 L 51.078000 122.530200 L 53.027500 119.753700 L 55.009300 117.001800 L 57.023400 114.274900 L 59.069200 111.573100 L 61.146600 108.896800 L 63.255300 106.246300 L 65.395000 103.621800 L 67.565500 101.023600 L 69.766400 98.451900 L 71.997500 95.907200 L 74.258400 93.389500 L 76.549000 90.899300 L 78.869000 88.436800 L 81.218000 86.002200 L 83.595800 83.595800 L 86.002200 81.218000 L 88.436800 78.869000 L 90.899300 76.549000 L 93.389500 74.258400 L 95.907200 71.997500 L 98.451900 69.766400 L 101.023600 67.565500 L 103.621800 65.395000 L 106.246300 63.255300 L 108.896800 61.146600 L 111.573100 59.069200 L 114.274900 57.023400 L 117.001800 55.009300 L 119.753700 53.027500 L 122.530200 51.078000 L 125.331100 49.161100 L 128.156000 47.277200 L 131.004800 45.426600 L 133.877100 43.609400 L 136.772700 41.826000 L 139.691200 40.076700 L 142.632500 38.361700 L 145.596200 36.681300 L 148.582000 35.035800 L 151.589700 33.425500 L 154.619000 31.850600 L 157.669600 30.311400 L 160.741300 28.808200 L 163.833700 27.341300 L 166.946600 25.910900 L 170.079800 24.517400 L 173.232800 23.160900 L 176.405500 21.841800 L 179.597600 20.560400 L 182.808900 19.316900 L 186.038900 18.111600 L 189.287500 16.944800 L 192.554300 15.816800 L 195.839200 14.727800 L 199.141800 13.678100 L 202.461800 12.668000 L 205.799000 11.697800 L 209.153100 10.767700 L 212.523800 9.878100 L 215.910800 9.029100 L 219.313900 8.221100 L 222.732700 7.454400 L 226.167100 6.729200 L 229.616700 6.045800 L 233.081300 5.404500 L 236.560500 4.805500 L 240.054100 4.249200 L 243.561900 3.735800 L 247.083500 3.265600 L 250.618600 2.838900 L 254.167100 2.455900 L 257.728600 2.116900 L 261.302800 1.822200 L 264.889400 1.572100 L 268.488300 1.366900 L 272.099000 1.206800 L 275.721400 1.092100 L 279.355100 1.023000 L 283.000000 1.000000 Z M 66.076900 213.358300 L 66.076900 352.641600 L 109.188400 352.641600 L 141.765800 256.859900 L 142.156000 256.859900 L 172.977800 352.641600 L 216.089300 352.641600 L 216.089300 213.358300 L 187.413300 213.358300 L 187.413300 312.066100 L 187.023200 312.066100 L 152.885100 213.358300 L 129.281100 213.358300 L 95.143000 311.090700 L 94.752800 311.090700 L 94.752800 213.358300 Z M 228.379000 213.358300 L 281.049200 352.641600 L 312.456200 352.641600 L 364.541200 213.358300 L 332.744000 213.358300 L 322.210000 244.375100 L 270.125000 244.375100 L 259.200800 213.358300 Z M 376.635800 213.358300 L 376.635800 352.641600 L 436.718800 352.641600 L 437.558300 352.637400 L 439.226300 352.603900 L 440.879900 352.536800 L 442.519000 352.436300 L 444.143600 352.302100 L 445.753700 352.134500 L 447.349300 351.933300 L 448.930500 351.698600 L 450.497200 351.430400 L 452.049400 351.128600 L 453.587200 350.793400 L 455.110400 350.424500 L 456.619200 350.022200 L 458.113500 349.586300 L 459.593300 349.116900 L 461.058700 348.614000 L 461.785900 348.350000 L 462.508300 348.077600 L 463.934800 347.507600 L 465.336900 346.904100 L 466.714600 346.267000 L 468.067900 345.596400 L 469.396900 344.892300 L 470.701400 344.154700 L 471.981600 343.383600 L 473.237400 342.578900 L 474.468800 341.740700 L 475.675800 340.868900 L 476.858500 339.963700 L 478.016700 339.024900 L 479.150600 338.052500 L 480.260100 337.046700 L 481.345200 336.007300 L 481.878600 335.475000 L 482.405300 334.934400 L 483.437100 333.828000 L 484.439900 332.688000 L 485.413800 331.514500 L 486.358700 330.307500 L 487.274600 329.066900 L 488.161600 327.792800 L 489.019600 326.485200 L 489.848700 325.144100 L 490.648800 323.769400 L 491.419900 322.361200 L 492.162100 320.919500 L 492.875400 319.444200 L 493.559700 317.935500 L 494.215000 316.393100 L 494.841400 314.817300 L 495.143700 314.016800 L 495.437700 313.207800 L 495.997800 311.563300 L 496.520500 309.883900 L 497.005900 308.169300 L 497.454000 306.419800 L 497.864700 304.635100 L 498.238100 302.815500 L 498.574200 300.960700 L 498.872900 299.070900 L 499.134200 297.146100 L 499.358300 295.186200 L 499.545000 293.191300 L 499.694300 291.161300 L 499.806300 289.096200 L 499.881000 286.996100 L 499.918400 284.861000 L 499.923000 283.780200 L 499.919200 282.831500 L 499.888700 280.947800 L 499.827800 279.082400 L 499.736300 277.235300 L 499.614400 275.406500 L 499.462000 273.596000 L 499.279100 271.803700 L 499.065800 270.029800 L 498.821900 268.274100 L 498.547600 266.536700 L 498.242800 264.817600 L 497.907500 263.116800 L 497.541700 261.434300 L 497.145500 259.770000 L 496.718800 258.124100 L 496.261600 256.496400 L 496.021500 255.689500 L 495.773800 254.888200 L 495.254800 253.306300 L 494.704700 251.751800 L 494.123300 250.224700 L 493.510600 248.725100 L 492.866700 247.252900 L 492.191600 245.808100 L 491.485200 244.390800 L 490.747600 243.000900 L 489.978700 241.638400 L 489.178600 240.303300 L 488.347200 238.995700 L 487.484600 237.715600 L 486.590800 236.462800 L 485.665700 235.237500 L 484.709400 234.039600 L 484.219500 233.451000 L 483.721900 232.869600 L 482.703900 231.730400 L 481.655300 230.622500 L 480.576300 229.545800 L 479.466800 228.500300 L 478.326900 227.486000 L 477.156400 226.503000 L 475.955500 225.551300 L 474.724100 224.630800 L 473.462200 223.741500 L 472.169800 222.883500 L 470.847000 222.056700 L 469.493700 221.261200 L 468.109800 220.496900 L 466.695500 219.763800 L 465.250800 219.062000 L 464.517000 218.722800 L 463.775200 218.392800 L 462.267200 217.764100 L 460.726400 217.177400 L 459.152900 216.632500 L 457.546600 216.129600 L 455.907500 215.668600 L 454.235600 215.249500 L 452.531000 214.872300 L 450.793600 214.537000 L 449.023500 214.243600 L 447.220600 213.992200 L 445.384900 213.782600 L 443.516400 213.615000 L 441.615200 213.489200 L 439.681200 213.405400 L 437.714500 213.363500 L 436.718800 213.358300 Z M 434.987100 239.110200 L 435.813200 239.127000 L 436.636100 239.160500 L 437.456100 239.210800 L 438.272900 239.277900 L 439.086800 239.361700 L 439.897500 239.462300 L 440.705300 239.579600 L 441.510000 239.713700 L 442.311600 239.864600 L 443.110200 240.032300 L 443.905700 240.216700 L 444.698200 240.417800 L 445.487700 240.635800 L 446.274000 240.870500 L 447.057400 241.121900 L 447.447900 241.254000 L 447.836700 241.390800 L 448.606400 241.681200 L 449.365300 241.993600 L 450.113600 242.328100 L 450.851300 242.684700 L 451.578200 243.063400 L 452.294500 243.464300 L 453.000100 243.887200 L 453.695100 244.332200 L 454.379400 244.799300 L 455.053000 245.288500 L 455.715900 245.799800 L 456.368200 246.333200 L 457.009800 246.888700 L 457.640800 247.466300 L 458.261000 248.066000 L 458.567200 248.374200 L 458.870100 248.688000 L 459.464400 249.333500 L 460.043600 250.002500 L 460.607500 250.695200 L 461.156100 251.411500 L 461.689500 252.151400 L 462.207700 252.914900 L 462.710600 253.702100 L 463.198300 254.512800 L 463.670700 255.347200 L 464.128000 256.205300 L 464.569900 257.086900 L 464.996600 257.992200 L 465.408100 258.921100 L 465.804400 259.873600 L 466.185400 260.849700 L 466.370200 261.346600 L 466.550200 261.850000 L 466.893100 262.877100 L 467.213100 263.931800 L 467.510300 265.013800 L 467.784700 266.123300 L 468.036100 267.260200 L 468.264700 268.424600 L 468.470500 269.616400 L 468.653300 270.835600 L 468.813400 272.082200 L 468.950500 273.356300 L 469.064800 274.657800 L 469.156300 275.986800 L 469.224900 277.343200 L 469.270600 278.727000 L 469.293400 280.138200 L 469.296300 280.854100 L 469.294300 281.510500 L 469.278300 282.811200 L 469.246300 284.096000 L 469.198300 285.364700 L 469.134300 286.617500 L 469.054300 287.854200 L 468.958200 289.075000 L 468.846200 290.279700 L 468.718200 291.468400 L 468.574200 292.641200 L 468.414200 293.797900 L 468.238100 294.938600 L 468.046100 296.063400 L 467.838100 297.172100 L 467.614100 298.264800 L 467.374000 299.341500 L 467.248000 299.873900 L 467.117400 300.401900 L 466.840800 301.443500 L 466.543600 302.466200 L 466.225900 303.469700 L 465.887500 304.454300 L 465.528600 305.419700 L 465.149100 306.366100 L 464.749100 307.293500 L 464.328500 308.201800 L 463.887300 309.091100 L 463.425500 309.961300 L 462.943100 310.812500 L 462.440200 311.644600 L 461.916700 312.457700 L 461.372600 313.251700 L 460.808000 314.026600 L 460.517900 314.407000 L 460.222400 314.782200 L 459.613500 315.516000 L 458.981000 316.227700 L 458.325000 316.917300 L 457.645200 317.584800 L 456.941900 318.230300 L 456.215000 318.853600 L 455.464400 319.454800 L 454.690200 320.033900 L 453.892300 320.591000 L 453.070900 321.125900 L 452.225800 321.638700 L 451.357100 322.129500 L 450.464800 322.598100 L 449.548900 323.044600 L 448.609300 323.469100 L 448.130700 323.673000 L 447.645600 323.871000 L 446.654200 324.248200 L 445.634600 324.600300 L 444.586900 324.927200 L 443.510900 325.228900 L 442.406700 325.505600 L 441.274400 325.757000 L 440.113900 325.983300 L 438.925100 326.184500 L 437.708200 326.360500 L 436.463100 326.511400 L 435.189700 326.637100 L 433.888200 326.737700 L 432.558500 326.813200 L 431.200600 326.863500 L 429.814500 326.888600 L 429.110900 326.891800 L 407.262500 326.891800 L 407.262500 239.108100 L 434.573000 239.108100 Z M 296.655200 318.308500 L 296.265000 318.308500 L 278.123100 267.198900 L 314.211900 267.198900 Z" transform="scale(1.000000,1.000000) translate(-0.750000,-1.000000)" fill="#ffffff" opacity="1.000000"></path>
    </g>
</svg>